<svg width="80" height="80" viewBox="0 0 80 80" fill="none" xmlns="http://www.w3.org/2000/svg">
<path d="M67.7558 12.9859L49.6942 2.56384C43.7846 -0.854613 36.5432 -0.854613 30.6336 2.56384L12.4886 12.9859C6.66228 16.4044 3 22.741 3 29.4946V50.422C3 57.259 6.66228 63.5122 12.4886 66.9306L30.5504 77.4362C36.46 80.8546 43.7012 80.8546 49.6108 77.4362L67.6726 66.9306C73.5822 63.5122 77.1612 57.259 77.1612 50.422V29.4946C77.3276 22.741 73.6654 16.4044 67.7558 12.9859ZM40.1222 58.593C29.8844 58.593 21.5611 50.2554 21.5611 40C21.5611 29.7446 29.8844 21.407 40.1222 21.407C50.36 21.407 58.7666 29.7446 58.7666 40C58.7666 50.2554 50.4432 58.593 40.1222 58.593Z" fill="url(#paint0_linear_56_856)"/>
<defs>
<linearGradient id="paint0_linear_56_856" x1="-60.6173" y1="65.4962" x2="90.676" y2="27.5349" gradientUnits="userSpaceOnUse">
<stop offset="0.265625" stop-color="#592EE1"/>
<stop offset="1" stop-color="#B836D9"/>
</linearGradient>
</defs>
</svg>
